name C:\Users\u0101727\Documents\MyRepositories\upper-imu-dc\Results\main_tracking\Case_69\kinematics.mot
datacolumns 10
datarows 47
range 3.50000000 3.96000000
endheader 
time	clav_prot	clav_elev	scapula_abduction	scapula_elevation	scapula_upward_rot	scapula_winging	plane_elv	shoulder_elv	axial_rot	
          3.50000000	        -44.20910388	          9.01284977	          0.89461141	         -1.68714405	         83.74527138	        -11.72525351	         37.71649256	         87.43957695	         -7.31699432	
          3.51000000	        -44.20912242	          9.01648268	          0.88692519	         -1.68576781	         83.73644791	        -11.72773831	         37.75922520	         87.41056648	         -7.27850803	
          3.52000000	        -44.20846215	          9.01948533	          0.87979099	         -1.68488255	         83.72663402	        -11.72979845	         37.79995645	         87.38057562	         -7.24003206	
          3.53000000	        -44.20713977	          9.02165822	          0.87325034	         -1.68462154	         83.71585764	        -11.73138911	         37.83835590	         87.34968473	         -7.20143823	
          3.54000000	        -44.20516134	          9.02282638	          0.86737191	         -1.68509805	         83.70416609	        -11.73246137	         37.87414903	         87.31800342	         -7.16251663	
          3.55000000	        -44.20255435	          9.02285298	          0.86219775	         -1.68639823	         83.69163187	        -11.73298540	         37.90715123	         87.28564681	         -7.12298646	
          3.56000000	        -44.19936172	          9.02161016	          0.85775175	         -1.68860185	         83.67834081	        -11.73294119	         37.93728281	         87.25274565	         -7.08253739	
          3.57000000	        -44.19562997	          9.01903672	          0.85404841	         -1.69174161	         83.66439597	        -11.73232488	         37.96452424	         87.21943729	         -7.04086561	
          3.58000000	        -44.19139131	          9.01511823	          0.85111826	         -1.69581686	         83.64990414	        -11.73113450	         37.98890598	         87.18587572	         -6.99773297	
          3.59000000	        -44.18669000	          9.00988082	          0.84896322	         -1.70080013	         83.63497471	        -11.72938563	         38.01053571	         87.15220450	         -6.95301541	
          3.60000000	        -44.18156667	          9.00341085	          0.84757258	         -1.70662349	         83.61971171	        -11.72710771	         38.02956150	         87.11855670	         -6.90674753	
          3.61000000	        -44.17605553	          8.99584750	          0.84692350	         -1.71318423	         83.60420589	        -11.72434180	         38.04616494	         87.08504754	         -6.85915544	
          3.62000000	        -44.17018156	          8.98737135	          0.84698222	         -1.72035346	         83.58852651	        -11.72113742	         38.06055873	         87.05176734	         -6.81067375	
          3.63000000	        -44.16395688	          8.97819742	          0.84770598	         -1.72798136	         83.57271336	        -11.71754984	         38.07298333	         87.01877631	         -6.76194587	
          3.64000000	        -44.15737913	          8.96856559	          0.84904246	         -1.73590452	         83.55676958	        -11.71363795	         38.08370993	         86.98610005	         -6.71380841	
          3.65000000	        -44.15043098	          8.95873095	          0.85092881	         -1.74395303	         83.54065612	        -11.70946253	         38.09304621	         86.95372609	         -6.66726171	
          3.66000000	        -44.14307988	          8.94895465	          0.85329160	         -1.75195714	         83.52428815	        -11.70508431	         38.10134308	         86.92160181	         -6.62342931	
          3.67000000	        -44.13527682	          8.93949522	          0.85604990	         -1.75975311	         83.50753373	        -11.70056127	         38.10900049	         86.88963404	         -6.58350953	
          3.68000000	        -44.12695363	          8.93060058	          0.85912244	         -1.76718840	         83.49021444	        -11.69594463	         38.11647062	         86.85769061	         -6.54872213	
          3.69000000	        -44.11801857	          8.92250077	          0.86243830	         -1.77412587	         83.47210741	        -11.69127384	         38.12425800	         86.82560391	         -6.52025262	
          3.70000000	        -44.10835042	          8.91540117	          0.86595012	         -1.78044771	         83.45294713	        -11.68657059	         38.13291627	         86.79317748	         -6.49919725	
          3.71000000	        -44.09779181	          8.90947623	          0.86964822	         -1.78605881	         83.43242720	        -11.68183262	         38.14304185	         86.76019489	         -6.48651134	
          3.72000000	        -44.08614302	          8.90486435	          0.87357414	         -1.79088943	         83.41020260	        -11.67702800	         38.15526450	         86.72642942	         -6.48296327	
          3.73000000	        -44.07315616	          8.90166509	          0.87783264	         -1.79489635	         83.38589159	        -11.67209029	         38.17023535	         86.69165537	         -6.48909576	
          3.74000000	        -44.05853140	          8.89993915	          0.88260119	         -1.79806195	         83.35907972	        -11.66691550	         38.18861289	         86.65565803	         -6.50519557	
          3.75000000	        -44.04191508	          8.89971052	          0.88813747	         -1.80039181	         83.32932628	        -11.66136038	         38.21104774	         86.61824154	         -6.53127271	
          3.76000000	        -44.02289959	          8.90096893	          0.89478633	         -1.80191177	         83.29617369	        -11.65524150	         38.23816639	         86.57923440	         -6.56705081	
          3.77000000	        -44.00102435	          8.90367085	          0.90298681	         -1.80266584	         83.25915942	        -11.64833431	         38.27055532	         86.53849250	         -6.61197065	
          3.78000000	        -43.97577907	          8.90773793	          0.91327739	         -1.80271583	         83.21782931	        -11.64037289	         38.30874748	         86.49589986	         -6.66520830	
          3.79000000	        -43.94661100	          8.91305311	          0.92629479	         -1.80214289	         83.17175088	        -11.63105176	         38.35321496	         86.45136693	         -6.72570851	
          3.80000000	        -43.91293847	          8.91945567	          0.94276105	         -1.80105064	         83.12052483	        -11.62003183	         38.40437146	         86.40482663	         -6.79223199	
          3.81000000	        -43.87417123	          8.92673751	          0.96345657	         -1.79956826	         83.06379358	        -11.60695168	         38.46258520	         86.35622875	         -6.86341408	
          3.82000000	        -43.82973569	          8.93464345	          0.98918121	         -1.79785183	         83.00124663	        -11.59144356	         38.52820003	         86.30553348	         -6.93783061	
          3.83000000	        -43.77910177	          8.94287734	          1.02070931	         -1.79608216	         82.93262314	        -11.57315231	         38.60155957	         86.25270508	         -7.01406702	
          3.84000000	        -43.72180765	          8.95111426	          1.05874519	         -1.79445850	         82.85771259	        -11.55175467	         38.68302945	         86.19770603	         -7.09078688	
          3.85000000	        -43.65747915	          8.95901724	          1.10388521	         -1.79318906	         82.77635386	        -11.52697651	         38.77301371	         86.14049235	         -7.16679580	
          3.86000000	        -43.58584241	          8.96625636	          1.15658975	         -1.79247947	         82.68843254	        -11.49860615	         38.87196369	         86.08101007	         -7.24109602	
          3.87000000	        -43.50672862	          8.97252762	          1.21716661	         -1.79252101	         82.59387634	        -11.46650285	         38.98037957	         86.01919332	         -7.31292613	
          3.88000000	        -43.42007089	          8.97757015	          1.28576580	         -1.79347973	         82.49264687	        -11.43059993	         39.09880541	         85.95496530	         -7.38178224	
          3.89000000	        -43.32589446	          8.98118021	          1.36238449	         -1.79548737	         82.38472928	        -11.39090317	         39.22781899	         85.88824084	         -7.44741960	
          3.90000000	        -43.22430214	          8.98322098	          1.44687990	         -1.79863494	         82.27012029	        -11.34748512	         39.36801797	         85.81892944	         -7.50983690	
          3.91000000	        -43.11545720	          8.98362775	          1.53898771	         -1.80296913	         82.14881618	        -11.30047658	         39.52000429	         85.74693768	         -7.56924766	
          3.92000000	        -42.99956498	          8.98240842	          1.63834457	         -1.80849160	         82.02080206	        -11.25005602	         39.68436766	         85.67216975	         -7.62604404	
          3.93000000	        -42.87685479	          8.97964010	          1.74451331	         -1.81516063	         81.88604365	        -11.19643777	         39.86166870	         85.59452535	         -7.68075957	
          3.94000000	        -42.74756301	          8.97546209	          1.85700913	         -1.82289488	         81.74448206	        -11.13985986	         40.05242251	         85.51389491	         -7.73403632	
          3.95000000	        -42.61192000	          8.97006331	          1.97532294	         -1.83158097	         81.59603119	        -11.08057263	         40.25708606	         85.43015254	         -7.78659991	
          3.96000000	        -42.47014175	          8.96366741	          2.09893877	         -1.84108278	         81.44057731	        -11.01882944	         40.47604932	         85.34314793	         -7.83924251	
